# xmcd CD database file
#
# Track frame offsets:
#	150
#	12878
#	24608
#	37704
#	51517
#	62953
#	74541
#	88091
#	99870
#	112058
#	125818
#	138197
#	151177
#	164000
#	176631
#	189286
#	201964
#	213702
#	227004
#	239110
#	252304
#
# Disc length: 3505 seconds
#
# Revision: 2
# Processed by: cddbd v1.5.2PL0 Copyright (c) Steve Scherf et al.
# Submitted via: CDex 1.51
#
DISCID=350daf15
DTITLE=Brownie McGhee - Back Home Blues
DYEAR=2001
DGENRE=Blues
TTITLE0=Key To My Door  [1941]
TTITLE1=Million Lonesome Woman  [1941]
TTITLE2=Ain't No Tellin'  [1941]
TTITLE3=Try Me One More Time  [1941]
TTITLE4=I Want to See Jesus  [1941]
TTITLE5=Done What My Lord Said  [1941]
TTITLE6=I Want King Jesus  [1941]
TTITLE7=What Will I Do (Without the Lord)  [1941]
TTITLE8=Key To The Highway  [1941]
TTITLE9=I Don't Believe in Love  [1941]
TTITLE10=So Much Trouble  [1941]
TTITLE11=Good-Bye Now  [1941]
TTITLE12=Jealous of My Woman  [1941]
TTITLE13=Unfair Blues  [1941]
TTITLE14=Barbecue Any Old Time  [1941]
TTITLE15=Workingman's Blues  [1941]
TTITLE16=Sinful Disposition Woman  [1941]
TTITLE17=Back Home Blues  [1941]
TTITLE18=Deep Sea Diver  [1941]
TTITLE19=It Must Be Love  [1941]
TTITLE20=Swing, Soldier, Swing  [1941]
EXTD=YEAR: 2001
EXTT0=
EXTT1=
EXTT2=
EXTT3=
EXTT4=
EXTT5=
EXTT6=
EXTT7=
EXTT8=
EXTT9=
EXTT10=
EXTT11=
EXTT12=
EXTT13=
EXTT14=
EXTT15=
EXTT16=
EXTT17=
EXTT18=
EXTT19=
EXTT20=
PLAYORDER=
